<svg width="105" height="29" viewBox="0 0 105 29" fill="none" xmlns="http://www.w3.org/2000/svg">
<path fill-rule="evenodd" clip-rule="evenodd" d="M104.989 29C71.1319 29 79.302 0 51.6427 0C23.042 0 34.9776 29 0 29H105H104.989Z" fill="#FCFCFC"/>
<path fill-rule="evenodd" clip-rule="evenodd" d="M52.0554 11.097C48.8138 11.097 46.1616 13.4225 46.1616 16.2647V23.4995C46.1616 26.3417 48.8138 28.6672 52.0554 28.6672C55.2971 28.6672 57.9493 26.3417 57.9493 23.4995V16.2647C57.9493 13.4225 55.2971 11.097 52.0554 11.097ZM56.7284 23.4995C56.7284 25.7511 54.6235 27.5968 52.0554 27.5968C49.4874 27.5968 47.3824 25.7511 47.3824 23.4995V16.2647C47.3824 14.0131 49.4874 12.1674 52.0554 12.1674C54.6235 12.1674 56.7284 14.0131 56.7284 16.2647V23.4995Z" fill="#CEA953"/>
<path fill-rule="evenodd" clip-rule="evenodd" d="M52.0555 14.6036C51.7188 14.6036 51.4662 14.8251 51.4662 15.1204V17.5566C51.4662 17.8519 51.7188 18.0734 52.0555 18.0734C52.3923 18.0734 52.6449 17.8519 52.6449 17.5566V15.1204C52.6449 14.8251 52.3923 14.6036 52.0555 14.6036Z" fill="#CEA953"/>
</svg>
