<svg width="53" height="53" viewBox="0 0 53 53" fill="none" xmlns="http://www.w3.org/2000/svg">
<path fill-rule="evenodd" clip-rule="evenodd" d="M51.1744 26.4516C51.1744 40.3896 40.151 51.6886 26.5529 51.6886C12.9549 51.6886 1.93149 40.3896 1.93149 26.4516C1.93149 12.5136 12.9549 1.21464 26.5529 1.21464C40.151 1.21464 51.1744 12.5136 51.1744 26.4516ZM26.5529 2.25607e-06C40.8054 1.01008e-06 52.3594 11.8428 52.3594 26.4516C52.3594 41.0604 40.8054 52.9032 26.5529 52.9032C12.3004 52.9032 0.746475 41.0604 0.746474 26.4516C0.746472 11.8428 12.3004 3.50207e-06 26.5529 2.25607e-06Z" fill="url(#paint0_linear_1661_14156)"/>
<path d="M28.7188 34.7519C28.8252 34.8614 28.9582 34.9161 29.1045 34.9161C29.2508 34.9161 29.3837 34.8614 29.4901 34.7519C29.7029 34.533 29.7029 34.1773 29.4901 33.9584L22.7081 26.9806L29.4901 20.0029C29.7029 19.784 29.7029 19.4283 29.4901 19.2093C29.2774 18.9904 28.9316 18.9904 28.7188 19.2093L21.5512 26.5839C21.3384 26.8028 21.3384 27.1585 21.5512 27.3774L28.7188 34.7519Z" fill="url(#paint1_linear_1661_14156)"/>
<defs>
<linearGradient id="paint0_linear_1661_14156" x1="46.7108" y1="-3.04362e-05" x2="-6.15196" y2="3.32946" gradientUnits="userSpaceOnUse">
<stop stop-color="#E4C87E"/>
<stop offset="1" stop-color="#A58D54"/>
</linearGradient>
<linearGradient id="paint1_linear_1661_14156" x1="46.7108" y1="-3.04362e-05" x2="-6.15196" y2="3.32946" gradientUnits="userSpaceOnUse">
<stop stop-color="#E4C87E"/>
<stop offset="1" stop-color="#A58D54"/>
</linearGradient>
</defs>
</svg>
