<svg width="52" height="53" viewBox="0 0 52 53" fill="none" xmlns="http://www.w3.org/2000/svg">
<path fill-rule="evenodd" clip-rule="evenodd" d="M1.18501 26.4517C1.18501 12.5137 12.2084 1.21473 25.8065 1.21473C39.4045 1.21473 50.4279 12.5137 50.4279 26.4517C50.4279 40.3897 39.4045 51.6887 25.8065 51.6887C12.2084 51.6887 1.18501 40.3897 1.18501 26.4517ZM25.8065 52.9033C11.5539 52.9033 0 41.0605 0 26.4517C0 11.8429 11.5539 9.53674e-05 25.8065 9.53674e-05C40.059 9.53674e-05 51.6129 11.8429 51.6129 26.4517C51.6129 41.0605 40.059 52.9033 25.8065 52.9033Z" fill="url(#paint0_linear_1661_14199)"/>
<path d="M23.6405 18.1514C23.5342 18.0419 23.4012 17.9872 23.2549 17.9872C23.1086 17.9872 22.9756 18.0419 22.8693 18.1514C22.6565 18.3703 22.6565 18.726 22.8693 18.9449L29.6512 25.9227L22.8693 32.9004C22.6565 33.1193 22.6565 33.4751 22.8693 33.694C23.082 33.9129 23.4278 33.9129 23.6405 33.694L30.8082 26.3195C31.0209 26.1005 31.0209 25.7448 30.8082 25.5259L23.6405 18.1514Z" fill="url(#paint1_linear_1661_14199)"/>
<defs>
<linearGradient id="paint0_linear_1661_14199" x1="5.64862" y1="52.9034" x2="58.5113" y2="49.5739" gradientUnits="userSpaceOnUse">
<stop stop-color="#E4C87E"/>
<stop offset="1" stop-color="#A58D54"/>
</linearGradient>
<linearGradient id="paint1_linear_1661_14199" x1="5.64862" y1="52.9034" x2="58.5113" y2="49.5739" gradientUnits="userSpaceOnUse">
<stop stop-color="#E4C87E"/>
<stop offset="1" stop-color="#A58D54"/>
</linearGradient>
</defs>
</svg>
