<svg width="22" height="16" viewBox="0 0 22 16" fill="none" xmlns="http://www.w3.org/2000/svg">
<path fill-rule="evenodd" clip-rule="evenodd" d="M20.5511 1.68374C19.801 0.76275 18.4079 0.391602 15.749 0.391602H6.10467C3.3855 0.391602 1.97233 0.790239 1.22221 1.76621C0.492185 2.72157 0.492188 4.12367 0.492188 6.06875V9.7802C0.492188 13.5466 1.36286 15.4642 6.10467 15.4642H15.749C18.053 15.4642 19.3322 15.1343 20.156 14.3233C20.9998 13.4917 21.3615 12.1308 21.3615 9.7802V6.06875C21.3682 4.02058 21.3079 2.60473 20.5511 1.68374ZM13.8938 8.43996L9.51369 10.7905C9.41323 10.8455 9.30606 10.8661 9.1989 10.8661C9.07835 10.8661 8.9578 10.8318 8.85064 10.7631C8.64972 10.6393 8.52916 10.4125 8.52916 10.172V5.49142C8.52916 5.25086 8.64972 5.02405 8.85064 4.90033C9.05157 4.77662 9.29937 4.76974 9.51369 4.87971L13.8938 7.21655C14.1149 7.33339 14.2555 7.57395 14.2555 7.82825C14.2555 8.08255 14.1149 8.32312 13.8938 8.43996Z" fill="url(#paint0_linear_1661_14105)"/>
<defs>
<linearGradient id="paint0_linear_1661_14105" x1="2.77622" y1="0.391593" x2="24.066" y2="2.29465" gradientUnits="userSpaceOnUse">
<stop stop-color="#E4C87E"/>
<stop offset="1" stop-color="#A58D54"/>
</linearGradient>
</defs>
</svg>
