<svg width="27" height="26" viewBox="0 0 27 26" fill="none" xmlns="http://www.w3.org/2000/svg">
<path d="M13.5 26C20.9558 26 27 20.1797 27 13C27 5.8203 20.9558 0 13.5 0C6.04415 0 0 5.8203 0 13C0 20.1797 6.04415 26 13.5 26Z" fill="#BAA162"/>
<path fill-rule="evenodd" clip-rule="evenodd" d="M11.526 18.2736C11.2076 18.2736 10.8255 18.151 10.5708 17.9057L7.25945 14.5944C6.75002 14.1038 6.75002 13.2453 7.25945 12.7547C7.76889 12.2642 8.6604 12.2642 9.16983 12.7547L11.526 15.1463L17.9576 7.84908C18.467 7.35852 19.3585 7.35852 19.8679 7.84908C20.3774 8.33965 20.3774 9.19814 19.8679 9.68871L12.4812 17.9057C12.2264 18.151 11.8444 18.2736 11.526 18.2736Z" fill="#FCFCFC"/>
</svg>
