<svg width="21" height="21" viewBox="0 0 21 21" fill="none" xmlns="http://www.w3.org/2000/svg">
<path d="M10.2938 20.5876C15.9789 20.5876 20.5876 15.9789 20.5876 10.2938C20.5876 4.60868 15.9789 0 10.2938 0C4.60868 0 0 4.60868 0 10.2938C0 15.9789 4.60868 20.5876 10.2938 20.5876Z" fill="url(#paint0_linear_1661_14512)"/>
<path fill-rule="evenodd" clip-rule="evenodd" d="M8.78857 14.4696C8.54579 14.4696 8.25446 14.3725 8.06024 14.1782L5.53535 11.5562C5.1469 11.1678 5.1469 10.488 5.53535 10.0996C5.92379 9.71113 6.60357 9.71113 6.99202 10.0996L8.78857 11.9932L13.6927 6.21513C14.0811 5.82669 14.7609 5.82669 15.1494 6.21513C15.5378 6.60358 15.5378 7.28336 15.1494 7.6718L9.51691 14.1782C9.32268 14.3725 9.03135 14.4696 8.78857 14.4696Z" fill="#0C0E18"/>
<defs>
<linearGradient id="paint0_linear_1661_14512" x1="2.25315" y1="-1.20366e-05" x2="23.335" y2="1.361" gradientUnits="userSpaceOnUse">
<stop stop-color="#E4C87E"/>
<stop offset="1" stop-color="#A58D54"/>
</linearGradient>
</defs>
</svg>
