<svg width="18" height="18" viewBox="0 0 18 18" fill="none" xmlns="http://www.w3.org/2000/svg">
<path fill-rule="evenodd" clip-rule="evenodd" d="M10.4416 8.85107L17.3929 1.89981C17.8052 1.48745 17.8052 0.780544 17.3929 0.309272C16.9805 -0.103091 16.2736 -0.103091 15.8023 0.309272L8.85107 7.26053L1.89981 0.309272C1.48745 -0.103091 0.780544 -0.103091 0.309272 0.309272C-0.103091 0.721635 -0.103091 1.42854 0.309272 1.89981L7.26053 8.85107L0.309272 15.8023C-0.103091 16.2147 -0.103091 16.9216 0.309272 17.3929C0.544908 17.6285 0.780544 17.6874 1.07509 17.6874C1.36963 17.6874 1.66418 17.5696 1.84091 17.3929L8.79216 10.4416L15.7434 17.3929C15.9791 17.6285 16.2147 17.6874 16.5092 17.6874C16.8038 17.6874 17.0983 17.5696 17.2751 17.3929C17.6874 16.9805 17.6874 16.2736 17.2751 15.8023L10.3238 8.85107H10.4416Z" fill="url(#paint0_linear_1270_13293)"/>
<defs>
<linearGradient id="paint0_linear_1270_13293" x1="1.93736" y1="-1.0341e-05" x2="20.0644" y2="1.17121" gradientUnits="userSpaceOnUse">
<stop stop-color="#E4C87E"/>
<stop offset="1" stop-color="#A58D54"/>
</linearGradient>
</defs>
</svg>
