<svg width="20" height="17" viewBox="0 0 20 17" fill="none" xmlns="http://www.w3.org/2000/svg">
<path fill-rule="evenodd" clip-rule="evenodd" d="M1.10679 8.01575L5.3819 9.61984L7.03711 14.9674C7.14295 15.3091 7.55935 15.4364 7.83696 15.2097L10.2191 13.2569C10.469 13.0529 10.8247 13.0425 11.0849 13.2325L15.3826 16.3675C15.6793 16.5837 16.0974 16.4198 16.172 16.0606L19.3211 0.842677C19.4026 0.450373 19.0192 0.122581 18.6462 0.267297L1.10332 7.06724C0.671301 7.23462 0.674771 7.85185 1.10853 8.014L1.10679 8.01575ZM6.76992 8.76548L15.1241 3.59404C15.275 3.50163 15.4294 3.70563 15.2993 3.82593L8.40431 10.2667C8.16141 10.4934 8.00526 10.7967 7.96188 11.1263L7.72765 12.8751C7.69642 13.1087 7.37024 13.1314 7.30604 12.9065L6.40209 9.71748C6.29799 9.35307 6.44894 8.96425 6.76992 8.76548Z" fill="url(#paint0_linear_1661_14104)"/>
<defs>
<linearGradient id="paint0_linear_1661_14104" x1="2.8115" y1="0.232412" x2="21.7837" y2="1.6322" gradientUnits="userSpaceOnUse">
<stop stop-color="#E4C87E"/>
<stop offset="1" stop-color="#A58D54"/>
</linearGradient>
</defs>
</svg>
