<svg width="27" height="24" viewBox="0 0 27 24" fill="none" xmlns="http://www.w3.org/2000/svg">
<path fill-rule="evenodd" clip-rule="evenodd" d="M0.473812 11.5081L6.69603 13.8798L9.10512 21.7865C9.25916 22.2917 9.86522 22.4799 10.2693 22.1448L13.7364 19.2575C14.1001 18.9559 14.6177 18.9404 14.9965 19.2214L21.2516 23.8566C21.6834 24.1762 22.292 23.9339 22.4006 23.4029L26.9839 0.902297C27.1026 0.322253 26.5445 -0.162407 26.0016 0.0515653L0.468761 10.1057C-0.160026 10.3532 -0.154975 11.2658 0.476337 11.5055L0.473812 11.5081ZM8.71623 12.6166L20.8753 4.97034C21.095 4.83371 21.3198 5.13533 21.1304 5.31321L11.095 14.8362C10.7415 15.1714 10.5142 15.62 10.4511 16.1072L10.1102 18.6929C10.0647 19.0383 9.58996 19.0719 9.49653 18.7393L8.18087 14.0242C8.02936 13.4854 8.24906 12.9105 8.71623 12.6166Z" fill="url(#paint0_linear_1661_14554)"/>
<defs>
<linearGradient id="paint0_linear_1661_14554" x1="2.95494" y1="-1.40317e-05" x2="30.5728" y2="2.00581" gradientUnits="userSpaceOnUse">
<stop stop-color="#E4C87E"/>
<stop offset="1" stop-color="#A58D54"/>
</linearGradient>
</defs>
</svg>
