<svg width="16" height="16" viewBox="0 0 16 16" fill="none" xmlns="http://www.w3.org/2000/svg">
<path fill-rule="evenodd" clip-rule="evenodd" d="M0 3.68862C0 4.97725 0.249102 5.28383 0.622755 6.40958C1.25509 8.31617 1.90659 9.19281 3.08982 10.6587C3.33892 10.9701 3.71257 11.3485 3.99521 11.6311C4.07186 11.7126 4.09102 11.7653 4.16287 11.8371L5.32216 12.8958C5.72934 13.2407 6.14132 13.5856 6.58683 13.8826C7.65988 14.5964 8.33533 14.9653 9.56647 15.3725C9.76287 15.4347 9.91617 15.5066 10.1126 15.5737C10.7401 15.794 11.3533 15.9665 11.9713 16H12.4407C12.8575 15.976 13.2838 15.8802 13.7198 15.6886C14.3808 15.3964 15.4251 14.8407 15.6838 14.1509C15.8754 13.6479 16 13.1257 16 12.5317C16 12.3305 15.8084 12.1964 15.6743 12.1054L14.1892 11.2814C14.0311 11.2 13.8731 11.0994 13.7102 11.0132C13.5329 10.9126 13.3796 10.8263 13.212 10.7257C12.1916 10.0838 12.0862 9.77246 10.9653 11.1856C9.92575 12.4886 9.89222 12.412 8.80479 11.7557C7.26228 10.8216 6.27545 10.0982 5.1497 8.5988C4.8 8.12455 4.55569 7.71257 4.25389 7.21437C3.60719 6.13653 3.49222 6.07425 4.8 5.0491C6.4479 3.75569 5.77246 3.73653 5.0012 2.31377C4.91018 2.1509 4.80479 1.97844 4.71856 1.81078L4.04311 0.584431C3.77485 0.0958084 3.71257 0 3.28144 0C2.84551 0 2.1988 0.191617 1.87305 0.306587C0.929341 0.646707 0 2.61078 0 3.68862Z" fill="url(#paint0_linear_1661_14535)"/>
<defs>
<linearGradient id="paint0_linear_1661_14535" x1="1.75107" y1="-9.35446e-06" x2="18.1352" y2="1.05772" gradientUnits="userSpaceOnUse">
<stop stop-color="#E4C87E"/>
<stop offset="1" stop-color="#A58D54"/>
</linearGradient>
</defs>
</svg>
