<svg width="42.000000" height="31.000000" viewBox="0 0 42 31" fill="none" xmlns="http://www.w3.org/2000/svg" xmlns:xlink="http://www.w3.org/1999/xlink">
	<desc>
			Created with Pixso.
	</desc>
	<defs>
		<linearGradient id="paint_linear_1661_14209_0" x1="37.403442" y1="31.000031" x2="-1.171677" y2="-21.735615" gradientUnits="userSpaceOnUse">
			<stop stop-color="#E4C87E"/>
			<stop offset="1.000000" stop-color="#A58D54"/>
		</linearGradient>
	</defs>
	<path d="M26.26 31L26.26 28.53C29.85 26.69 32.42 24.76 33.97 22.77C35.53 20.76 36.29 18.59 36.29 16.23C36.29 14.82 36.08 13.88 35.67 13.34C35.32 12.79 34.86 12.5 34.32 12.5C33.81 12.5 33.08 12.66 32.19 12.95C31.31 13.26 30.48 13.4 29.75 13.4C28.08 13.4 26.61 12.79 25.37 11.58C24.13 10.37 23.51 8.87 23.51 7.13C23.51 5.2 24.25 3.56 25.76 2.19C27.25 0.81 29.14 0.12 31.35 0.12C34.07 0.12 36.52 1.29 38.71 3.6C40.9 5.92 42 8.77 42 12.17C42 16.17 40.65 19.9 37.96 23.35C35.25 26.81 31.36 29.35 26.26 30.99L26.26 31ZM2.91 30.75L2.91 28.45C6.99 26.14 9.67 24.04 10.96 22.2C12.25 20.35 12.9 18.18 12.9 15.7C12.9 14.57 12.67 13.73 12.24 13.18C11.78 12.6 11.33 12.34 10.83 12.34C10.39 12.34 9.74 12.49 8.85 12.81C7.96 13.13 7.07 13.28 6.17 13.28C4.53 13.28 3.07 12.69 1.84 11.52C0.61 10.35 0 8.91 0 7.21C0 5.26 0.78 3.57 2.33 2.15C3.89 0.72 5.78 0 8.06 0C10.73 0 13.14 1.14 15.28 3.42C17.41 5.69 18.48 8.52 18.48 11.93C18.48 16.13 17.14 19.95 14.43 23.41C11.72 26.86 7.87 29.31 2.91 30.75L2.91 30.75Z" fill="url(#paint_linear_1661_14209_0)" fill-opacity="1.000000" fill-rule="evenodd"/>
</svg>
